<?xml version="1.0" encoding="UTF-8"?>
<svg id="Layer_1" xmlns="http://www.w3.org/2000/svg" version="1.1" viewBox="0 0 972 800">
  <!-- Generator: Adobe Illustrator 30.1.0, SVG Export Plug-In . SVG Version: 2.1.1 Build 136)  -->
  <defs>
    <style>
      .st0 {
        fill: #363b57;
      }

      .st1 {
        fill: #fff;
      }

      .st2 {
        fill: #dd8157;
      }
    </style>
  </defs>
  <g>
    <polygon class="st1" points="485.5 35.5 186.9 73.7 186.9 362.1 784.2 362.1 784.2 69.3 485.5 35.5"/>
    <path class="st1" d="M195,501.8l30.9,85.9h2.9c51,94.5,144.2,163.7,256.7,180.5h0c120.2-18,218.4-95.7,266.5-200.2h-4.6l25.1-67.9-577.6,1.7Z"/>
  </g>
  <g>
    <path class="st0" d="M483.5,80.9l-251.5,32.9c-1.1.1-1.9,1.1-1.9,2.2v249.6c0,1.1.8,2.1,1.9,2.2l251.6,29.9c.9.1,1.9.1,2.8,0l252.6-29.9c1.1-.1,1.9-1.1,1.9-2.2V113c0-1.1-.8-2.1-1.9-2.2l-252.6-29.9c-1-.1-2-.1-2.9,0ZM717.6,132.9v212.9c0,.4-.3.8-.7.8l-230.9,27.9-231.9-27.9c-.4,0-.7-.4-.7-.8v-212.9c0-.4.3-.8.7-.8l230.9-27.9,231.9,27.9c.4,0,.7.4.7.8Z"/>
    <path class="st0" d="M284,182.2l189.1-18.2c.4,0,.8.3.8.7v25.4c0,.4-.3.8-.7.8l-189.2,18.2c-1.1.1-2,1.1-2,2.2v61.5c0,1.3,1,2.3,2.3,2.3h188.7c.5,0,1,.4,1,1v16.6c0,.6.4,1.1,1,1.2l9.8,1c.9,0,1.7,0,2.6,0l8.9-1c.6,0,1-.6,1-1.2v-16.6c0-.5.4-1,1-1h167.6v22l-179.8,17.1-201.9-19c-1.1-.1-2.1.8-2.1,1.9v19.4c0,1.1.9,2.1,2,2.2l200.9,18.8c.7,0,1.5,0,2.2,0l200.1-18.8c1.1-.1,2-1.1,2-2.2v-62.4c0-1.3-1-2.3-2.3-2.3h-188.7c-.5,0-1-.4-1-1v-35.6c0-.4.4-.7.8-.7l189.1,18.1c1.1.1,2.1-.8,2.1-1.9v-19.4c0-1.1-.9-2.1-2-2.2l-189.2-18.2c-.4,0-.7-.4-.7-.8v-25.3c0-.4.4-.7.8-.7l189.1,19.7c1.1.1,2.1-.8,2.1-1.9v-19.4c0-1.1-.9-2.1-2-2.2l-200.8-20.7c-.8,0-1.6,0-2.3,0l-200,19.2c-1.1.1-2,1.1-2,2.2v19.4c0,1.1,1,2,2.1,1.9ZM473.9,214.9v35.7c0,.5-.4,1-1,1h-167.6v-21.1l167.8-16.3c.4,0,.8.3.8.7Z"/>
  </g>
  <polygon class="st2" points="948 409.7 880.7 409.7 880.7 362.1 92.6 362.1 92.6 409.7 25.3 409.7 53.5 492.9 25.3 568.1 218.4 568.1 200.3 520.4 769.6 520.4 751.5 568.1 948 568.1 919.8 492.9 948 409.7"/>
  <path class="st0" d="M959.1,576.5l-31.4-83.7,31-91.5h-70.6v-47.6h-97.1V61.8L483.8,27l-307,39.3v287.4h-93.7v47.6H12.4l31,91.5-31.4,83.7h200c13.6,28.4,30.9,55.1,51.7,79.3,56.1,65.1,133.8,108,218.8,120.8l1.3.2,1.3-.2c85-12.8,162.7-55.7,218.8-120.8,20.8-24.2,38.2-50.9,51.8-79.3h203.4ZM935.1,418.2l-25.4,74.9,25,66.6h-170.9l124-30.8h.2v-110.7h47.1ZM193.6,81.1l290.3-37.1,290.2,32.9v276.8H193.6V81.1ZM99.9,370.5h771.3v141.5H99.9v-141.5ZM36.3,559.6l25-66.6-25.4-74.9h47.1v110.7h0,0s0,0,0,0l121.4,30.8H36.3ZM691.2,644.9c-53.2,61.8-126.8,102.6-207.3,114.9-80.5-12.4-154.1-53.2-207.3-114.9-29.5-34.2-51.6-73.7-65.5-116h545.7c-14,42.3-36,81.8-65.5,116Z"/>
  <g>
    <polygon class="st0" points="131.6 416.3 155.8 416.3 155.8 488.7 177.4 488.7 177.4 416.3 201.5 416.3 201.5 396.4 131.6 396.4 131.6 416.3"/>
    <path class="st0" d="M279.3,437.4v-21.4c0-12.9-6.5-19.5-19.5-19.5h-48.5v92.2h21.6v-31.3h12l14.7,31.3h23.4l-15.3-32.9c7.7-2.2,11.6-8.4,11.6-18.4ZM257.7,417.2v19.7c0,.5,0,.7,0,.8,0,0-.3,0-.8,0h-23.8v-21.4h23.8c.5,0,.7,0,.8,0,0,0,0,.3,0,.8Z"/>
    <path class="st0" d="M341.2,467.7c0,.5,0,.7,0,.8,0,0-.3,0-.8,0h-24.9c-.5,0-.7,0-.8,0,0,0,0-.3,0-.8v-71.2h-21.6v72.8c0,12.9,6.5,19.5,19.5,19.5h31c12.9,0,19.5-6.5,19.5-19.5v-72.8h-21.6v71.2Z"/>
    <path class="st0" d="M425.4,396.4h-29.4c-12.9,0-19.5,6.5-19.5,19.5v53.3c0,12.9,6.5,19.5,19.5,19.5h29.4c12.9,0,19.5-6.5,19.5-19.5v-16.2h-21.6v14.6c0,.5,0,.7,0,.8,0,0-.3,0-.8,0h-23.3c-.5,0-.7,0-.8,0,0,0,0-.3,0-.8v-50.3c0-.5,0-.7,0-.8,0,0,.3,0,.8,0h23.3c.5,0,.7,0,.8,0,0,0,0,.3,0,.8v14.6h21.6v-16.2c0-12.9-6.5-19.5-19.5-19.5Z"/>
    <polygon class="st0" points="533.9 396.4 508.1 396.4 479.1 434.8 479.1 396.4 457.7 396.4 457.7 488.7 479.1 488.7 479.1 465.5 490.1 451.6 510.3 488.7 534.7 488.7 504.7 433.3 533.9 396.4"/>
    <path class="st0" d="M584.6,434.6l-23.6-5.1c-3-.7-3-1.1-3-2.7v-9.6c0-.5,0-.7,0-.8,0,0,.3,0,.8,0h21.8c.5,0,.7,0,.8,0,0,0,0,.3,0,.8v10.6h21.1v-11.8c0-12.9-6.5-19.5-19.5-19.5h-27.4c-12.9,0-19.5,6.5-19.5,19.5v13.7c0,13.8,9.9,17.8,19.6,19.9l23.6,5.1c3,.7,3,1.1,3,2.7v10.7c0,.5,0,.7,0,.8,0,0-.3,0-.8,0h-23.6c-.5,0-.7,0-.8,0,0,0,0-.3,0-.8v-11.6h-21.1v12.9c0,12.9,6.5,19.5,19.5,19.5h29.2c12.9,0,19.5-6.5,19.5-19.5v-14.7c0-13.8-9.9-17.8-19.6-19.9Z"/>
    <path class="st0" d="M636.2,396.4l-28.1,92.2h22.8l5.5-19.3h27.9l5.5,19.3h23.6l-28.1-92.2h-29.2ZM658.7,449.2h-16.6l8.3-29.4,8.3,29.4Z"/>
    <polygon class="st0" points="701.5 488.7 723.1 488.7 723.1 452.2 756.8 452.2 756.8 432.4 723.1 432.4 723.1 416.6 764.6 416.6 764.6 396.4 701.5 396.4 701.5 488.7"/>
    <polygon class="st0" points="838.2 416.6 838.2 396.4 775.1 396.4 775.1 488.7 838.2 488.7 838.2 468.5 796.7 468.5 796.7 451.5 830.4 451.5 830.4 431.6 796.7 431.6 796.7 416.6 838.2 416.6"/>
  </g>
  <g>
    <path class="st0" d="M324.8,600.7h-16.1l-2.9,11.2h-15l16.4-54.6h19.3l16.6,54.6h-15.6l-2.9-11.2ZM321.8,589l-5.1-19.7-5.1,19.7h10.1Z"/>
    <path class="st0" d="M350.3,601.3v-33.4c0-7.2,3.6-10.6,10.8-10.6h20.8c7.2,0,10.4,3.4,10.4,10.6v10.2h-14.7v-7.3c0-1.1-.3-1.4-1.4-1.4h-9.9c-1.1,0-1.4.3-1.4,1.4v27.4c0,1.1.3,1.4,1.4,1.4h9.9c1.1,0,1.4-.3,1.4-1.4v-7.3h14.7v10.2c0,7.2-3.4,10.6-10.6,10.6h-20.8c-7.2,0-10.6-3.4-10.6-10.6Z"/>
    <path class="st0" d="M432.3,600.7h-16.1l-2.9,11.2h-15l16.4-54.6h19.3l16.6,54.6h-15.6l-2.9-11.2ZM429.3,589l-5.1-19.7-5.1,19.7h10.1Z"/>
    <path class="st0" d="M459.6,557.4h32.4c7.2,0,10.6,3.4,10.6,10.6v33.4c0,7.2-3.4,10.6-10.6,10.6h-32.4v-54.6ZM486.6,599.8c1.1,0,1.4-.3,1.4-1.4v-27.4c0-1.1-.3-1.4-1.4-1.4h-12.3v30.2h12.3Z"/>
    <path class="st0" d="M515.4,557.4h38.4v12.2h-23.7v8.5h18.8v12h-18.8v9.7h23.7v12.2h-38.4v-54.6Z"/>
    <path class="st0" d="M565.4,557.4h16.5l12.2,28.7,12.2-28.7h16.4v54.6h-14.2v-31.4l-10.2,24.8h-8.9l-10.2-24.8v31.4h-13.9v-54.6Z"/>
    <path class="st0" d="M649,595l-17.4-37.7h15.9l8.9,23.2,8.9-23.2h15.7l-17.4,37.7v16.9h-14.7v-16.9Z"/>
  </g>
  <g>
    <polygon class="st0" points="535.6 663.4 587.3 663.4 545.5 693.8 561.5 644.6 577.4 693.8 535.6 663.4"/>
    <polygon class="st0" points="382.6 663.4 434.3 663.4 392.4 693.8 408.4 644.6 424.4 693.8 382.6 663.4"/>
    <polygon class="st0" points="459.1 683.6 510.8 683.6 469 714 484.9 664.8 500.9 714 459.1 683.6"/>
  </g>
</svg>