<?xml version="1.0" encoding="UTF-8"?>
<svg id="Layer_1" xmlns="http://www.w3.org/2000/svg" version="1.1" viewBox="0 0 690 80.5">
  <!-- Generator: Adobe Illustrator 30.1.0, SVG Export Plug-In . SVG Version: 2.1.1 Build 136)  -->
  <defs>
    <style>
      .st0 {
        fill: #fff;
      }

      .st1 {
        fill: #dd8157;
      }
    </style>
  </defs>
  <g>
    <path class="st0" d="M175.9,20h-17.5V8h48.3v12h-17.5v52.6h-13.3V20Z"/>
    <path class="st0" d="M265.3,72.5h-14.3l-10.7-22.8h-10.7v22.8h-13.3V8h34c8.8,0,12.9,4.2,12.9,12.9v15.6c0,7.3-2.9,11.4-8.9,12.5l11,23.5ZM248.1,37.9c1.4,0,1.8-.5,1.8-1.8v-14.3c0-1.4-.5-1.8-1.8-1.8h-18.5v18h18.5Z"/>
    <path class="st0" d="M275.6,59.6V8h13.3v50.5c0,1.4.5,1.8,1.8,1.8h18.1c1.4,0,1.8-.5,1.8-1.8V8h13.3v51.7c0,8.8-4.2,12.9-12.9,12.9h-22.5c-8.8,0-12.9-4.2-12.9-12.9Z"/>
    <path class="st0" d="M336.3,59.6V20.9c0-8.8,4.2-12.9,12.9-12.9h21.4c8.8,0,12.9,4.2,12.9,12.9v10.5h-13.3v-9.4c0-1.4-.5-1.8-1.8-1.8h-17c-1.4,0-1.8.5-1.8,1.8v36.5c0,1.4.5,1.8,1.8,1.8h17c1.4,0,1.8-.5,1.8-1.8v-9.4h13.3v10.5c0,8.8-4.2,12.9-12.9,12.9h-21.4c-8.8,0-12.9-4.2-12.9-12.9Z"/>
    <path class="st0" d="M433,72.5l-15.2-27.9-9.4,11.9v16h-13.1V8h13.1v30.3l23-30.3h15.6l-20.2,25.5,21.2,39.1h-14.9Z"/>
    <path class="st0" d="M452.3,59.6v-8.1h12.9v7.2c0,1.4.5,1.8,1.8,1.8h17.2c1.4,0,1.8-.5,1.8-1.8v-7.7c0-2-.7-2.6-3.1-3.1l-17.2-3.7c-8.1-1.8-13.3-5-13.3-13.3v-10c0-8.8,4.2-12.9,12.9-12.9h19.9c8.8,0,12.9,4.2,12.9,12.9v7.4h-12.9v-6.5c0-1.4-.5-1.8-1.8-1.8h-15.9c-1.4,0-1.8.5-1.8,1.8v7c0,2,.7,2.6,3.1,3.1l17.2,3.7c8.1,1.8,13.3,5,13.3,13.3v10.7c0,8.8-4.2,12.9-12.9,12.9h-21.2c-8.8,0-12.9-4.2-12.9-12.9Z"/>
    <path class="st0" d="M545.2,58.5h-22.1l-4,14h-14l19.6-64.6h19.4l19.6,64.6h-14.6l-4-14ZM541.8,46.3l-7.7-27.1-7.7,27.1h15.3Z"/>
    <path class="st0" d="M572.5,8h43.4v12.2h-30.2v13.9h24.4v12h-24.4v26.5h-13.3V8Z"/>
    <path class="st0" d="M626,8h43.4v12.2h-30.2v13.4h24.4v12h-24.4v14.9h30.2v12.2h-43.4V8Z"/>
  </g>
  <g>
    <path class="st1" d="M64.4,0L.5,8.4c-.3,0-.5.3-.5.6v63.4c0,.3.2.5.5.6l63.9,7.6c.2,0,.5,0,.7,0l64.2-7.6c.3,0,.5-.3.5-.6V8.2c0-.3-.2-.5-.5-.6L65.1,0c-.2,0-.5,0-.7,0ZM123.8,13.2v54.1c0,.1,0,.2-.2.2l-58.6,7.1-58.9-7.1c-.1,0-.2-.1-.2-.2V13.2c0-.1,0-.2.2-.2l58.6-7.1,58.9,7.1c.1,0,.2.1.2.2Z"/>
    <path class="st1" d="M13.7,25.7l48-4.6c.1,0,.2,0,.2.2v6.4c0,.1,0,.2-.2.2l-48,4.6c-.3,0-.5.3-.5.6v15.6c0,.3.3.6.6.6h47.9c.1,0,.2.1.2.2v4.2c0,.2.1.3.3.3l2.5.3c.2,0,.4,0,.6,0l2.3-.3c.1,0,.3-.1.3-.3v-4.2c0-.1.1-.2.2-.2h42.6v5.6l-45.7,4.3-51.3-4.8c-.3,0-.5.2-.5.5v4.9c0,.3.2.5.5.6l51,4.8c.2,0,.4,0,.6,0l50.8-4.8c.3,0,.5-.3.5-.6v-15.9c0-.3-.3-.6-.6-.6h-47.9c-.1,0-.2-.1-.2-.2v-9c0-.1,0-.2.2-.2l48,4.6c.3,0,.5-.2.5-.5v-4.9c0-.3-.2-.5-.5-.6l-48-4.6c-.1,0-.2,0-.2-.2v-6.4c0-.1,0-.2.2-.2l48,5c.3,0,.5-.2.5-.5v-4.9c0-.3-.2-.5-.5-.6l-51-5.3c-.2,0-.4,0-.6,0l-50.8,4.9c-.3,0-.5.3-.5.6v4.9c0,.3.2.5.5.5ZM61.9,34.1v9.1c0,.1-.1.2-.2.2H19.1v-5.3l42.6-4.1c.1,0,.2,0,.2.2Z"/>
  </g>
  <path class="st0" d="M690,15.8c0,3.8-3,6.8-6.9,6.8s-6.9-3-6.9-6.8,3.1-6.7,6.9-6.7,6.9,3,6.9,6.7ZM677.9,15.8c0,3,2.2,5.4,5.2,5.4s5.1-2.4,5.1-5.3-2.2-5.4-5.2-5.4-5.2,2.4-5.2,5.4ZM682.1,19.4h-1.6v-6.7c.6-.1,1.5-.2,2.6-.2s1.8.2,2.3.5c.4.3.7.8.7,1.5s-.6,1.3-1.4,1.6h0c.7.3,1,.8,1.2,1.7.2,1,.3,1.4.5,1.7h-1.7c-.2-.2-.3-.9-.5-1.6-.1-.7-.5-1.1-1.4-1.1h-.7v2.7ZM682.1,15.6h.7c.9,0,1.6-.3,1.6-1s-.5-1-1.4-1-.7,0-.9,0v1.9Z"/>
</svg>